{
    "accessors": [
        {
            "bufferView": 0,
            "componentType": 5126,
            "count": 29,
            "max": [
                0.04014446586370468,
                0.01269999984651804,
                2.0816681711721685e-17
            ],
            "min": [
                0.04004432260990143,
                0.012468044646084309,
                -0.00040192564483731985
            ],
            "name": "mesh0_coord_accessor",
            "type": "VEC3"
        },
        {
            "bufferView": 1,
            "componentType": 5126,
            "count": 29,
            "max": [
                -0.02499069832265377,
                0.0,
                0.5
            ],
            "min": [
                -0.8660253882408142,
                -0.8656647801399231,
                0.5
            ],
            "name": "mesh0_norm_accessor",
            "type": "VEC3"
        },
        {
            "bufferView": 2,
            "componentType": 5126,
            "count": 29,
            "max": [
                1.0,
                1.0
            ],
            "min": [
                0.0,
                0.0
            ],
            "name": "mesh0_texcoord_accessor",
            "type": "VEC2"
        },
        {
            "bufferView": 3,
            "componentType": 5125,
            "count": 42,
            "max": [
                28
            ],
            "min": [
                0
            ],
            "name": "mesh0_idx_accessor",
            "type": "SCALAR"
        },
        {
            "bufferView": 4,
            "componentType": 5126,
            "count": 48,
            "max": [
                0.04014446586370468,
                0.01269999984651804,
                2.389587477684013e-17
            ],
            "min": [
                0.039483800530433655,
                0.010405427776277065,
                -0.00045996857807040215
            ],
            "name": "mesh1_coord_accessor",
            "type": "VEC3"
        },
        {
            "bufferView": 5,
            "componentType": 5126,
            "count": 48,
            "max": [
                -0.8647809624671936,
                0.5021492838859558,
                -0.0
            ],
            "min": [
                -1.0,
                -0.0,
                -0.0
            ],
            "name": "mesh1_norm_accessor",
            "type": "VEC3"
        },
        {
            "bufferView": 6,
            "componentType": 5126,
            "count": 48,
            "max": [
                1.0,
                1.0
            ],
            "min": [
                0.0,
                0.0
            ],
            "name": "mesh1_texcoord_accessor",
            "type": "VEC2"
        },
        {
            "bufferView": 7,
            "componentType": 5125,
            "count": 141,
            "max": [
                47
            ],
            "min": [
                0
            ],
            "name": "mesh1_idx_accessor",
            "type": "SCALAR"
        },
        {
            "bufferView": 8,
            "componentType": 5126,
            "count": 98,
            "max": [
                0.04013776779174805,
                0.01269999984651804,
                2.389587477684013e-17
            ],
            "min": [
                0.03947947546839714,
                0.010405427776277065,
                -0.00045996857807040215
            ],
            "name": "mesh2_coord_accessor",
            "type": "VEC3"
        },
        {
            "bufferView": 9,
            "componentType": 5126,
            "count": 98,
            "max": [
                0.8906186819076538,
                0.9753532409667969,
                0.4996694326400757
            ],
            "min": [
                -0.4260956943035126,
                -0.207646906375885,
                -0.427816241979599
            ],
            "name": "mesh2_norm_accessor",
            "type": "VEC3"
        },
        {
            "bufferView": 10,
            "componentType": 5126,
            "count": 98,
            "max": [
                1.0,
                1.0
            ],
            "min": [
                0.0,
                0.0
            ],
            "name": "mesh2_texcoord_accessor",
            "type": "VEC2"
        },
        {
            "bufferView": 11,
            "componentType": 5125,
            "count": 288,
            "max": [
                97
            ],
            "min": [
                0
            ],
            "name": "mesh2_idx_accessor",
            "type": "SCALAR"
        },
        {
            "bufferView": 12,
            "componentType": 5126,
            "count": 35,
            "max": [
                0.04004507511854172,
                0.01269999984651804,
                -0.00017215021944139153
            ],
            "min": [
                0.03612672537565231,
                0.011293703690171242,
                -0.006958928890526295
            ],
            "name": "mesh3_coord_accessor",
            "type": "VEC3"
        },
        {
            "bufferView": 13,
            "componentType": 5126,
            "count": 35,
            "max": [
                -0.5877596735954285,
                0.6360334753990173,
                0.5
            ],
            "min": [
                -0.8660253882408142,
                -0.0,
                0.5
            ],
            "name": "mesh3_norm_accessor",
            "type": "VEC3"
        },
        {
            "bufferView": 14,
            "componentType": 5126,
            "count": 35,
            "max": [
                1.0,
                1.0
            ],
            "min": [
                0.0,
                0.0
            ],
            "name": "mesh3_texcoord_accessor",
            "type": "VEC2"
        },
        {
            "bufferView": 15,
            "componentType": 5125,
            "count": 72,
            "max": [
                34
            ],
            "min": [
                0
            ],
            "name": "mesh3_idx_accessor",
            "type": "SCALAR"
        },
        {
            "bufferView": 16,
            "componentType": 5126,
            "count": 109,
            "max": [
                0.03977520391345024,
                0.014469858258962631,
                3.2348825129702163e-07
            ],
            "min": [
                0.031939227133989334,
                0.007734597660601139,
                -0.014539031311869621
            ],
            "name": "mesh4_coord_accessor",
            "type": "VEC3"
        },
        {
            "bufferView": 17,
            "componentType": 5126,
            "count": 109,
            "max": [
                -0.48823878169059753,
                0.7155112028121948,
                0.5000276565551758
            ],
            "min": [
                -0.8256970047950745,
                0.2614485025405884,
                0.44620418548583984
            ],
            "name": "mesh4_norm_accessor",
            "type": "VEC3"
        },
        {
            "bufferView": 18,
            "componentType": 5126,
            "count": 109,
            "max": [
                1.0,
                1.0
            ],
            "min": [
                0.0,
                0.0
            ],
            "name": "mesh4_texcoord_accessor",
            "type": "VEC2"
        },
        {
            "bufferView": 19,
            "componentType": 5125,
            "count": 369,
            "max": [
                108
            ],
            "min": [
                0
            ],
            "name": "mesh4_idx_accessor",
            "type": "SCALAR"
        },
        {
            "bufferView": 20,
            "componentType": 5126,
            "count": 73,
            "max": [
                0.04014446586370468,
                0.02736469730734825,
                2.0816681711721685e-17
            ],
            "min": [
                0.02678702026605606,
                0.01269999984651804,
                -0.02539999969303608
            ],
            "name": "mesh5_coord_accessor",
            "type": "VEC3"
        },
        {
            "bufferView": 21,
            "componentType": 5126,
            "count": 73,
            "max": [
                0.0,
                0.8660253882408142,
                0.5
            ],
            "min": [
                -0.8660253882408142,
                0.0,
                0.5
            ],
            "name": "mesh5_norm_accessor",
            "type": "VEC3"
        },
        {
            "bufferView": 22,
            "componentType": 5126,
            "count": 73,
            "max": [
                1.0,
                1.0
            ],
            "min": [
                0.0,
                0.0
            ],
            "name": "mesh5_texcoord_accessor",
            "type": "VEC2"
        },
        {
            "bufferView": 23,
            "componentType": 5125,
            "count": 114,
            "max": [
                72
            ],
            "min": [
                0
            ],
            "name": "mesh5_idx_accessor",
            "type": "SCALAR"
        },
        {
            "bufferView": 24,
            "componentType": 5126,
            "count": 27,
            "max": [
                0.036949027329683304,
                0.018752438947558403,
                8.315928071752753e-16
            ],
            "min": [
                -6.5221954664790465e-18,
                4.741969803490065e-07,
                -0.02539999969303608
            ],
            "name": "mesh6_coord_accessor",
            "type": "VEC3"
        },
        {
            "bufferView": 25,
            "componentType": 5126,
            "count": 27,
            "max": [
                -0.004365971311926842,
                0.8660171627998352,
                0.5000032782554626
            ],
            "min": [
                -0.5176873207092285,
                0.6942648887634277,
                0.49999523162841797
            ],
            "name": "mesh6_norm_accessor",
            "type": "VEC3"
        },
        {
            "bufferView": 26,
            "componentType": 5126,
            "count": 27,
            "max": [
                1.0,
                1.0
            ],
            "min": [
                0.0,
                0.0
            ],
            "name": "mesh6_texcoord_accessor",
            "type": "VEC2"
        },
        {
            "bufferView": 27,
            "componentType": 5125,
            "count": 75,
            "max": [
                26
            ],
            "min": [
                0
            ],
            "name": "mesh6_idx_accessor",
            "type": "SCALAR"
        },
        {
            "bufferView": 28,
            "componentType": 5126,
            "count": 4,
            "max": [
                0.052844464778900146,
                0.02736469730734825,
                2.0816681711721685e-17
            ],
            "min": [
                0.04014446586370468,
                0.01269999984651804,
                -0.02539999969303608
            ],
            "name": "mesh7_coord_accessor",
            "type": "VEC3"
        },
        {
            "bufferView": 29,
            "componentType": 5126,
            "count": 4,
            "max": [
                1.1829249212791772e-16,
                0.8660253882408142,
                0.5
            ],
            "min": [
                1.1829249212791772e-16,
                0.8660253882408142,
                0.5
            ],
            "name": "mesh7_norm_accessor",
            "type": "VEC3"
        },
        {
            "bufferView": 30,
            "componentType": 5126,
            "count": 4,
            "max": [
                1.0,
                1.0
            ],
            "min": [
                0.0,
                0.0
            ],
            "name": "mesh7_texcoord_accessor",
            "type": "VEC2"
        },
        {
            "bufferView": 31,
            "componentType": 5125,
            "count": 6,
            "max": [
                3
            ],
            "min": [
                0
            ],
            "name": "mesh7_idx_accessor",
            "type": "SCALAR"
        },
        {
            "bufferView": 32,
            "componentType": 5126,
            "count": 34,
            "max": [
                4.0662851558126434e-11,
                0.014664696529507637,
                8.315928071752753e-16
            ],
            "min": [
                -0.02101469598710537,
                -0.02736469730734825,
                -0.02539999969303608
            ],
            "name": "mesh8_coord_accessor",
            "type": "VEC3"
        },
        {
            "bufferView": 33,
            "componentType": 5126,
            "count": 34,
            "max": [
                5.545265580053638e-09,
                0.8660253882408142,
                0.5
            ],
            "min": [
                -0.8660253882408142,
                -0.8660253882408142,
                0.5
            ],
            "name": "mesh8_norm_accessor",
            "type": "VEC3"
        },
        {
            "bufferView": 34,
            "componentType": 5126,
            "count": 34,
            "max": [
                1.0,
                1.0
            ],
            "min": [
                0.0,
                0.0
            ],
            "name": "mesh8_texcoord_accessor",
            "type": "VEC2"
        },
        {
            "bufferView": 35,
            "componentType": 5125,
            "count": 96,
            "max": [
                33
            ],
            "min": [
                0
            ],
            "name": "mesh8_idx_accessor",
            "type": "SCALAR"
        },
        {
            "bufferView": 36,
            "componentType": 5126,
            "count": 47,
            "max": [
                0.052844464778900146,
                0.01269999984651804,
                3.2348825129702163e-07
            ],
            "min": [
                -0.00634999992325902,
                -0.01269999984651804,
                -9.295271800532912e-16
            ],
            "name": "mesh9_coord_accessor",
            "type": "VEC3"
        },
        {
            "bufferView": 37,
            "componentType": 5126,
            "count": 47,
            "max": [
                0.0,
                0.0,
                1.0
            ],
            "min": [
                0.0,
                0.0,
                1.0
            ],
            "name": "mesh9_norm_accessor",
            "type": "VEC3"
        },
        {
            "bufferView": 38,
            "componentType": 5126,
            "count": 47,
            "max": [
                1.0,
                1.0
            ],
            "min": [
                0.0,
                0.0
            ],
            "name": "mesh9_texcoord_accessor",
            "type": "VEC2"
        },
        {
            "bufferView": 39,
            "componentType": 5125,
            "count": 135,
            "max": [
                46
            ],
            "min": [
                0
            ],
            "name": "mesh9_idx_accessor",
            "type": "SCALAR"
        },
        {
            "bufferView": 40,
            "componentType": 5126,
            "count": 17,
            "max": [
                0.06750915944576263,
                0.02736469730734825,
                6.938893903907228e-18
            ],
            "min": [
                0.052844464778900146,
                0.01269999984651804,
                -0.02539999969303608
            ],
            "name": "mesh10_coord_accessor",
            "type": "VEC3"
        },
        {
            "bufferView": 41,
            "componentType": 5126,
            "count": 17,
            "max": [
                0.8660253882408142,
                0.8660253882408142,
                0.5
            ],
            "min": [
                0.0,
                1.0244430054399785e-16,
                0.5
            ],
            "name": "mesh10_norm_accessor",
            "type": "VEC3"
        },
        {
            "bufferView": 42,
            "componentType": 5126,
            "count": 17,
            "max": [
                1.0,
                1.0
            ],
            "min": [
                0.0,
                0.0
            ],
            "name": "mesh10_texcoord_accessor",
            "type": "VEC2"
        },
        {
            "bufferView": 43,
            "componentType": 5125,
            "count": 24,
            "max": [
                16
            ],
            "min": [
                0
            ],
            "name": "mesh10_idx_accessor",
            "type": "SCALAR"
        },
        {
            "bufferView": 44,
            "componentType": 5126,
            "count": 50,
            "max": [
                0.06750915944576263,
                0.02736469730734825,
                -0.02539999969303608
            ],
            "min": [
                -0.02101469598710537,
                -0.02736469730734825,
                -0.02539999969303608
            ],
            "name": "mesh11_coord_accessor",
            "type": "VEC3"
        },
        {
            "bufferView": 45,
            "componentType": 5126,
            "count": 50,
            "max": [
                -0.0,
                -0.0,
                -1.0
            ],
            "min": [
                -0.0,
                -0.0,
                -1.0
            ],
            "name": "mesh11_norm_accessor",
            "type": "VEC3"
        },
        {
            "bufferView": 46,
            "componentType": 5126,
            "count": 50,
            "max": [
                1.0,
                1.0
            ],
            "min": [
                0.0,
                0.0
            ],
            "name": "mesh11_texcoord_accessor",
            "type": "VEC2"
        },
        {
            "bufferView": 47,
            "componentType": 5125,
            "count": 144,
            "max": [
                49
            ],
            "min": [
                0
            ],
            "name": "mesh11_idx_accessor",
            "type": "SCALAR"
        },
        {
            "bufferView": 48,
            "componentType": 5126,
            "count": 4,
            "max": [
                0.06750915944576263,
                0.01269999984651804,
                6.938893903907228e-18
            ],
            "min": [
                0.052844464778900146,
                -0.01269999984651804,
                -0.02539999969303608
            ],
            "name": "mesh12_coord_accessor",
            "type": "VEC3"
        },
        {
            "bufferView": 49,
            "componentType": 5126,
            "count": 4,
            "max": [
                0.8660253882408142,
                -0.0,
                0.5
            ],
            "min": [
                0.8660253882408142,
                -0.0,
                0.5
            ],
            "name": "mesh12_norm_accessor",
            "type": "VEC3"
        },
        {
            "bufferView": 50,
            "componentType": 5126,
            "count": 4,
            "max": [
                1.0,
                1.0
            ],
            "min": [
                0.0,
                0.0
            ],
            "name": "mesh12_texcoord_accessor",
            "type": "VEC2"
        },
        {
            "bufferView": 51,
            "componentType": 5125,
            "count": 6,
            "max": [
                3
            ],
            "min": [
                0
            ],
            "name": "mesh12_idx_accessor",
            "type": "SCALAR"
        },
        {
            "bufferView": 52,
            "componentType": 5126,
            "count": 4,
            "max": [
                0.052844464778900146,
                -0.01269999984651804,
                0.0
            ],
            "min": [
                -2.459548345942217e-18,
                -0.02736469730734825,
                -0.02539999969303608
            ],
            "name": "mesh13_coord_accessor",
            "type": "VEC3"
        },
        {
            "bufferView": 53,
            "componentType": 5126,
            "count": 4,
            "max": [
                3.695768332108451e-16,
                -0.8660253882408142,
                0.5
            ],
            "min": [
                3.695768332108451e-16,
                -0.8660253882408142,
                0.5
            ],
            "name": "mesh13_norm_accessor",
            "type": "VEC3"
        },
        {
            "bufferView": 54,
            "componentType": 5126,
            "count": 4,
            "max": [
                1.0,
                1.0
            ],
            "min": [
                0.0,
                0.0
            ],
            "name": "mesh13_texcoord_accessor",
            "type": "VEC2"
        },
        {
            "bufferView": 55,
            "componentType": 5125,
            "count": 6,
            "max": [
                3
            ],
            "min": [
                0
            ],
            "name": "mesh13_idx_accessor",
            "type": "SCALAR"
        },
        {
            "bufferView": 56,
            "componentType": 5126,
            "count": 17,
            "max": [
                0.06750915944576263,
                -0.01269999984651804,
                0.0
            ],
            "min": [
                0.052844464778900146,
                -0.02736469730734825,
                -0.02539999969303608
            ],
            "name": "mesh14_coord_accessor",
            "type": "VEC3"
        },
        {
            "bufferView": 57,
            "componentType": 5126,
            "count": 17,
            "max": [
                0.8660253882408142,
                1.0244430054399785e-16,
                0.5
            ],
            "min": [
                3.695768332108451e-16,
                -0.8660253882408142,
                0.5
            ],
            "name": "mesh14_norm_accessor",
            "type": "VEC3"
        },
        {
            "bufferView": 58,
            "componentType": 5126,
            "count": 17,
            "max": [
                1.0,
                1.0
            ],
            "min": [
                0.0,
                0.0
            ],
            "name": "mesh14_texcoord_accessor",
            "type": "VEC2"
        },
        {
            "bufferView": 59,
            "componentType": 5125,
            "count": 24,
            "max": [
                16
            ],
            "min": [
                0
            ],
            "name": "mesh14_idx_accessor",
            "type": "SCALAR"
        }
    ],
    "asset": {
        "generator": "ONSHAPE BY PTC INC, 1.218",
        "version": "2.0"
    },
    "bufferViews": [
        {
            "buffer": 0,
            "byteLength": 348,
            "name": "mesh0_coord_bufferView",
            "target": 34962
        },
        {
            "buffer": 0,
            "byteLength": 348,
            "byteOffset": 348,
            "name": "mesh0_norm_bufferView",
            "target": 34962
        },
        {
            "buffer": 0,
            "byteLength": 232,
            "byteOffset": 696,
            "name": "mesh0_texcoord_bufferView",
            "target": 34962
        },
        {
            "buffer": 0,
            "byteLength": 168,
            "byteOffset": 928,
            "name": "mesh0_idx_bufferView",
            "target": 34963
        },
        {
            "buffer": 0,
            "byteLength": 576,
            "byteOffset": 1096,
            "name": "mesh1_coord_bufferView",
            "target": 34962
        },
        {
            "buffer": 0,
            "byteLength": 576,
            "byteOffset": 1672,
            "name": "mesh1_norm_bufferView",
            "target": 34962
        },
        {
            "buffer": 0,
            "byteLength": 384,
            "byteOffset": 2248,
            "name": "mesh1_texcoord_bufferView",
            "target": 34962
        },
        {
            "buffer": 0,
            "byteLength": 564,
            "byteOffset": 2632,
            "name": "mesh1_idx_bufferView",
            "target": 34963
        },
        {
            "buffer": 0,
            "byteLength": 1176,
            "byteOffset": 3196,
            "name": "mesh2_coord_bufferView",
            "target": 34962
        },
        {
            "buffer": 0,
            "byteLength": 1176,
            "byteOffset": 4372,
            "name": "mesh2_norm_bufferView",
            "target": 34962
        },
        {
            "buffer": 0,
            "byteLength": 784,
            "byteOffset": 5548,
            "name": "mesh2_texcoord_bufferView",
            "target": 34962
        },
        {
            "buffer": 0,
            "byteLength": 1152,
            "byteOffset": 6332,
            "name": "mesh2_idx_bufferView",
            "target": 34963
        },
        {
            "buffer": 0,
            "byteLength": 420,
            "byteOffset": 7484,
            "name": "mesh3_coord_bufferView",
            "target": 34962
        },
        {
            "buffer": 0,
            "byteLength": 420,
            "byteOffset": 7904,
            "name": "mesh3_norm_bufferView",
            "target": 34962
        },
        {
            "buffer": 0,
            "byteLength": 280,
            "byteOffset": 8324,
            "name": "mesh3_texcoord_bufferView",
            "target": 34962
        },
        {
            "buffer": 0,
            "byteLength": 288,
            "byteOffset": 8604,
            "name": "mesh3_idx_bufferView",
            "target": 34963
        },
        {
            "buffer": 0,
            "byteLength": 1308,
            "byteOffset": 8892,
            "name": "mesh4_coord_bufferView",
            "target": 34962
        },
        {
            "buffer": 0,
            "byteLength": 1308,
            "byteOffset": 10200,
            "name": "mesh4_norm_bufferView",
            "target": 34962
        },
        {
            "buffer": 0,
            "byteLength": 872,
            "byteOffset": 11508,
            "name": "mesh4_texcoord_bufferView",
            "target": 34962
        },
        {
            "buffer": 0,
            "byteLength": 1476,
            "byteOffset": 12380,
            "name": "mesh4_idx_bufferView",
            "target": 34963
        },
        {
            "buffer": 0,
            "byteLength": 876,
            "byteOffset": 13856,
            "name": "mesh5_coord_bufferView",
            "target": 34962
        },
        {
            "buffer": 0,
            "byteLength": 876,
            "byteOffset": 14732,
            "name": "mesh5_norm_bufferView",
            "target": 34962
        },
        {
            "buffer": 0,
            "byteLength": 584,
            "byteOffset": 15608,
            "name": "mesh5_texcoord_bufferView",
            "target": 34962
        },
        {
            "buffer": 0,
            "byteLength": 456,
            "byteOffset": 16192,
            "name": "mesh5_idx_bufferView",
            "target": 34963
        },
        {
            "buffer": 0,
            "byteLength": 324,
            "byteOffset": 16648,
            "name": "mesh6_coord_bufferView",
            "target": 34962
        },
        {
            "buffer": 0,
            "byteLength": 324,
            "byteOffset": 16972,
            "name": "mesh6_norm_bufferView",
            "target": 34962
        },
        {
            "buffer": 0,
            "byteLength": 216,
            "byteOffset": 17296,
            "name": "mesh6_texcoord_bufferView",
            "target": 34962
        },
        {
            "buffer": 0,
            "byteLength": 300,
            "byteOffset": 17512,
            "name": "mesh6_idx_bufferView",
            "target": 34963
        },
        {
            "buffer": 0,
            "byteLength": 48,
            "byteOffset": 17812,
            "name": "mesh7_coord_bufferView",
            "target": 34962
        },
        {
            "buffer": 0,
            "byteLength": 48,
            "byteOffset": 17860,
            "name": "mesh7_norm_bufferView",
            "target": 34962
        },
        {
            "buffer": 0,
            "byteLength": 32,
            "byteOffset": 17908,
            "name": "mesh7_texcoord_bufferView",
            "target": 34962
        },
        {
            "buffer": 0,
            "byteLength": 24,
            "byteOffset": 17940,
            "name": "mesh7_idx_bufferView",
            "target": 34963
        },
        {
            "buffer": 0,
            "byteLength": 408,
            "byteOffset": 17964,
            "name": "mesh8_coord_bufferView",
            "target": 34962
        },
        {
            "buffer": 0,
            "byteLength": 408,
            "byteOffset": 18372,
            "name": "mesh8_norm_bufferView",
            "target": 34962
        },
        {
            "buffer": 0,
            "byteLength": 272,
            "byteOffset": 18780,
            "name": "mesh8_texcoord_bufferView",
            "target": 34962
        },
        {
            "buffer": 0,
            "byteLength": 384,
            "byteOffset": 19052,
            "name": "mesh8_idx_bufferView",
            "target": 34963
        },
        {
            "buffer": 0,
            "byteLength": 564,
            "byteOffset": 19436,
            "name": "mesh9_coord_bufferView",
            "target": 34962
        },
        {
            "buffer": 0,
            "byteLength": 564,
            "byteOffset": 20000,
            "name": "mesh9_norm_bufferView",
            "target": 34962
        },
        {
            "buffer": 0,
            "byteLength": 376,
            "byteOffset": 20564,
            "name": "mesh9_texcoord_bufferView",
            "target": 34962
        },
        {
            "buffer": 0,
            "byteLength": 540,
            "byteOffset": 20940,
            "name": "mesh9_idx_bufferView",
            "target": 34963
        },
        {
            "buffer": 0,
            "byteLength": 204,
            "byteOffset": 21480,
            "name": "mesh10_coord_bufferView",
            "target": 34962
        },
        {
            "buffer": 0,
            "byteLength": 204,
            "byteOffset": 21684,
            "name": "mesh10_norm_bufferView",
            "target": 34962
        },
        {
            "buffer": 0,
            "byteLength": 136,
            "byteOffset": 21888,
            "name": "mesh10_texcoord_bufferView",
            "target": 34962
        },
        {
            "buffer": 0,
            "byteLength": 96,
            "byteOffset": 22024,
            "name": "mesh10_idx_bufferView",
            "target": 34963
        },
        {
            "buffer": 0,
            "byteLength": 600,
            "byteOffset": 22120,
            "name": "mesh11_coord_bufferView",
            "target": 34962
        },
        {
            "buffer": 0,
            "byteLength": 600,
            "byteOffset": 22720,
            "name": "mesh11_norm_bufferView",
            "target": 34962
        },
        {
            "buffer": 0,
            "byteLength": 400,
            "byteOffset": 23320,
            "name": "mesh11_texcoord_bufferView",
            "target": 34962
        },
        {
            "buffer": 0,
            "byteLength": 576,
            "byteOffset": 23720,
            "name": "mesh11_idx_bufferView",
            "target": 34963
        },
        {
            "buffer": 0,
            "byteLength": 48,
            "byteOffset": 24296,
            "name": "mesh12_coord_bufferView",
            "target": 34962
        },
        {
            "buffer": 0,
            "byteLength": 48,
            "byteOffset": 24344,
            "name": "mesh12_norm_bufferView",
            "target": 34962
        },
        {
            "buffer": 0,
            "byteLength": 32,
            "byteOffset": 24392,
            "name": "mesh12_texcoord_bufferView",
            "target": 34962
        },
        {
            "buffer": 0,
            "byteLength": 24,
            "byteOffset": 24424,
            "name": "mesh12_idx_bufferView",
            "target": 34963
        },
        {
            "buffer": 0,
            "byteLength": 48,
            "byteOffset": 24448,
            "name": "mesh13_coord_bufferView",
            "target": 34962
        },
        {
            "buffer": 0,
            "byteLength": 48,
            "byteOffset": 24496,
            "name": "mesh13_norm_bufferView",
            "target": 34962
        },
        {
            "buffer": 0,
            "byteLength": 32,
            "byteOffset": 24544,
            "name": "mesh13_texcoord_bufferView",
            "target": 34962
        },
        {
            "buffer": 0,
            "byteLength": 24,
            "byteOffset": 24576,
            "name": "mesh13_idx_bufferView",
            "target": 34963
        },
        {
            "buffer": 0,
            "byteLength": 204,
            "byteOffset": 24600,
            "name": "mesh14_coord_bufferView",
            "target": 34962
        },
        {
            "buffer": 0,
            "byteLength": 204,
            "byteOffset": 24804,
            "name": "mesh14_norm_bufferView",
            "target": 34962
        },
        {
            "buffer": 0,
            "byteLength": 136,
            "byteOffset": 25008,
            "name": "mesh14_texcoord_bufferView",
            "target": 34962
        },
        {
            "buffer": 0,
            "byteLength": 96,
            "byteOffset": 25144,
            "name": "mesh14_idx_bufferView",
            "target": 34963
        }
    ],
    "buffers": [
        {
            "byteLength": 25240,
            "name": "Total_buffer",
            "uri": "data:application/octet-stream;base64,"
        }
    ],
    "extensionsUsed": [
        "PTC_onshape_metadata"
    ],
    "materials": [
        {
            "doubleSided": true,
            "name": "0.615686_0.811765_0.929412_0.000000_0.000000",
            "pbrMetallicRoughness": {
                "baseColorFactor": [
                    0.615686297416687,
                    0.8117647171020508,
                    0.929411768913269,
                    1.0
                ],
                "metallicFactor": 0.0
            }
        }
    ],
    "meshes": [
        {
            "name": "mesh0_mesh",
            "primitives": [
                {
                    "attributes": {
                        "NORMAL": 1,
                        "POSITION": 0,
                        "TEXCOORD_0": 2
                    },
                    "indices": 3,
                    "material": 0
                },
                {
                    "attributes": {
                        "NORMAL": 5,
                        "POSITION": 4,
                        "TEXCOORD_0": 6
                    },
                    "indices": 7,
                    "material": 0
                },
                {
                    "attributes": {
                        "NORMAL": 9,
                        "POSITION": 8,
                        "TEXCOORD_0": 10
                    },
                    "indices": 11,
                    "material": 0
                },
                {
                    "attributes": {
                        "NORMAL": 13,
                        "POSITION": 12,
                        "TEXCOORD_0": 14
                    },
                    "indices": 15,
                    "material": 0
                },
                {
                    "attributes": {
                        "NORMAL": 17,
                        "POSITION": 16,
                        "TEXCOORD_0": 18
                    },
                    "indices": 19,
                    "material": 0
                },
                {
                    "attributes": {
                        "NORMAL": 21,
                        "POSITION": 20,
                        "TEXCOORD_0": 22
                    },
                    "indices": 23,
                    "material": 0
                },
                {
                    "attributes": {
                        "NORMAL": 25,
                        "POSITION": 24,
                        "TEXCOORD_0": 26
                    },
                    "indices": 27,
                    "material": 0
                },
                {
                    "attributes": {
                        "NORMAL": 29,
                        "POSITION": 28,
                        "TEXCOORD_0": 30
                    },
                    "indices": 31,
                    "material": 0
                },
                {
                    "attributes": {
                        "NORMAL": 33,
                        "POSITION": 32,
                        "TEXCOORD_0": 34
                    },
                    "indices": 35,
                    "material": 0
                },
                {
                    "attributes": {
                        "NORMAL": 37,
                        "POSITION": 36,
                        "TEXCOORD_0": 38
                    },
                    "indices": 39,
                    "material": 0
                },
                {
                    "attributes": {
                        "NORMAL": 41,
                        "POSITION": 40,
                        "TEXCOORD_0": 42
                    },
                    "indices": 43,
                    "material": 0
                },
                {
                    "attributes": {
                        "NORMAL": 45,
                        "POSITION": 44,
                        "TEXCOORD_0": 46
                    },
                    "indices": 47,
                    "material": 0
                },
                {
                    "attributes": {
                        "NORMAL": 49,
                        "POSITION": 48,
                        "TEXCOORD_0": 50
                    },
                    "indices": 51,
                    "material": 0
                },
                {
                    "attributes": {
                        "NORMAL": 53,
                        "POSITION": 52,
                        "TEXCOORD_0": 54
                    },
                    "indices": 55,
                    "material": 0
                },
                {
                    "attributes": {
                        "NORMAL": 57,
                        "POSITION": 56,
                        "TEXCOORD_0": 58
                    },
                    "indices": 59,
                    "material": 0
                }
            ]
        }
    ],
    "nodes": [
        {
            "extensions": {
                "PTC_onshape_metadata": {
                    "entity_type": "Body",
                    "id": [
                        "JJD"
                    ]
                }
            },
            "mesh": 0,
            "name": "Part 1"
        }
    ],
    "scene": 0,
    "scenes": [
        {
            "name": "Root",
            "nodes": [
                0
            ]
        }
    ]
}